<svg height='300px' width='300px'  fill="#000000" xmlns:dc="http://purl.org/dc/elements/1.1/" xmlns:cc="http://creativecommons.org/ns#" xmlns:rdf="http://www.w3.org/1999/02/22-rdf-syntax-ns#" xmlns:svg="http://www.w3.org/2000/svg" xmlns="http://www.w3.org/2000/svg" xmlns:sodipodi="http://sodipodi.sourceforge.net/DTD/sodipodi-0.dtd" xmlns:inkscape="http://www.inkscape.org/namespaces/inkscape" viewBox="0 0 116.53956 86.959702" version="1.1" x="0px" y="0px"><g transform="translate(20.472161,-50.924912)"><path transform="matrix(0.26458333,0,0,0.26458333,-20.472161,50.924912)" style="" d="m 54.306641,65.03125 9.279297,36.99805 H 155.60156 V 85.449219 a 4.0046226,4.0046226 0 0 1 0.006,-0.148438 c 0.0812,-2.171754 0.14587,-3.895605 0.44336,-5.542969 0.29749,-1.647359 0.92773,-3.755873 3.01953,-5.035156 2.0918,-1.279279 4.19518,-0.909266 5.86914,-0.449218 1.67396,0.46004 3.38013,1.186155 5.56641,2.146484 l -0.0742,-0.03711 28.33008,11.720704 C 203.91315,81.945734 211.63282,78 220.22852,78 c 8.63184,0 16.35314,3.944629 21.49609,10.101562 l 28.45703,-11.873046 a 4.0046227,4.0046227 0 0 1 0.0371,-0.01367 c 2.42937,-0.984318 4.47838,-1.716094 6.4668,-2.097656 1.98841,-0.381566 4.17956,-0.468275 6.23828,0.701171 2.05871,1.16945 3.17472,3.335881 3.63867,5.314453 0.4641,1.978576 0.52305,4.081961 0.45898,6.623047 V 102.0293 h 90.0879 l 9.2207,-36.99805 z M 218.5625,86.083984 c -0.0651,0.0054 -0.13043,0.0096 -0.19531,0.01563 0.0648,-0.006 0.13037,-0.01023 0.19531,-0.01563 z m -1.74805,0.222657 c -0.0868,0.01502 -0.17332,0.03074 -0.25976,0.04687 0.0864,-0.01613 0.173,-0.03187 0.25976,-0.04687 z m -1.10547,0.238281 c -0.37017,0.08604 -0.73759,0.176856 -1.0996,0.283203 0.36184,-0.106286 0.72961,-0.197203 1.0996,-0.283203 z m 10.91211,0.517578 c 0.34613,0.115995 0.68817,0.24097 1.02539,0.375 -0.3376,-0.134209 -0.67886,-0.258869 -1.02539,-0.375 z m -12.7539,0.002 c -0.3425,0.115398 -0.67967,0.239857 -1.01367,0.373047 0.33377,-0.13308 0.67142,-0.257731 1.01367,-0.373047 z m 14.48633,0.666016 c 0.34048,0.150762 0.67388,0.313589 1.0039,0.482422 -0.33019,-0.168959 -0.66324,-0.331555 -1.0039,-0.482422 z m -16.20899,0.002 c -0.34003,0.151057 -0.67213,0.315216 -1.00195,0.484375 0.32953,-0.16896 0.66223,-0.33348 1.00195,-0.484375 z m 17.85742,0.816406 c 0.34217,0.191114 0.67271,0.399161 1.00196,0.609375 -0.32928,-0.21026 -0.65976,-0.41822 -1.00196,-0.609375 z m -19.50976,0.0078 c -0.33743,0.188979 -0.6632,0.393971 -0.98828,0.601562 0.32495,-0.207456 0.651,-0.412697 0.98828,-0.601562 z m -1.54492,0.953125 c -0.48175,0.330315 -0.95013,0.678797 -1.40039,1.048828 0.4504,-0.370062 0.9185,-0.718494 1.40039,-1.048828 z m -14.46289,5.492187 c -0.0601,0.138883 -0.11205,0.281872 -0.16993,0.421875 0.0581,-0.140642 0.12915,-0.274557 0.18946,-0.414062 z m 51.49804,0.002 -0.004,0.002 c 0.0987,0.228903 0.18288,0.46514 0.27539,0.697266 6.5e-4,0 0.001,0 0.002,0 -0.0918,-0.232789 -0.17459,-0.469959 -0.27344,-0.699219 z m -51.93945,1.089844 c -0.084,0.219019 -0.16165,0.440563 -0.24024,0.662109 0.0785,-0.221706 0.1563,-0.442947 0.24024,-0.662109 z m -0.43164,1.216797 c -0.0756,0.228369 -0.14697,0.458599 -0.2168,0.689453 0.0697,-0.2309 0.1413,-0.461047 0.2168,-0.689453 z" fill="#000000" fill-opacity="1" fill-rule="evenodd" stroke="none"></path><path transform="matrix(0.26458333,0,0,0.26458333,-20.472161,50.924912)" style="" d="m 63.585938,110.03711 -9.279297,36.99805 H 193.80469 l 5.85742,-21.85743 -27.21484,11.375 a 4.0046225,4.0046225 0 0 1 -0.0449,0.0156 c -2.42937,0.98431 -4.47838,1.72195 -6.46679,2.10352 -1.98842,0.38151 -4.17176,0.46046 -6.23047,-0.70899 -2.05872,-1.16945 -3.17472,-3.33587 -3.63867,-5.31445 -0.4641,-1.97858 -0.52305,-4.07219 -0.45899,-6.61328 l -0.006,0.0957 v -16.09375 z m 223.435542,0 v 17.29687 a 4.0046228,4.0046228 0 0 1 0,0.14649 c -0.0812,2.17175 -0.14587,3.89756 -0.44336,5.54492 -0.29746,1.64736 -0.92772,3.75392 -3.01953,5.0332 -2.09179,1.27929 -4.19518,0.91903 -5.86914,0.45899 -1.65168,-0.45393 -3.35328,-1.17767 -5.49804,-2.11914 l -0.0371,-0.0156 c -0.0147,-0.006 -0.0227,-0.007 -0.0371,-0.0137 l -28.52735,-11.85352 6.03711,22.51954 h 136.70313 l -9.2207,-36.99805 z M 246.75,115.04102 c -0.21248,0.61877 -0.44047,1.23128 -0.69336,1.83007 l 0.0137,0.006 c 0.25308,-0.60018 0.47816,-1.2146 0.6875,-1.83593 -0.003,-1.3e-4 -0.005,1.3e-4 -0.008,0 z" fill="#000000" fill-opacity="1" fill-rule="evenodd" stroke="none"></path><path transform="matrix(0.26458333,0,0,0.26458333,-20.472161,50.924912)" style="" d="m 163.83984,82.400391 c -0.0865,0.851966 -0.17328,1.665533 -0.23046,3.195312 v 40.535157 a 4.0046226,4.0046226 0 0 1 0,0.10352 c -0.0561,2.2239 0.0727,3.81966 0.25195,4.58398 0.0121,0.0522 0.003,0.0204 0.0137,0.0625 0.14491,-0.0129 0.31865,-0.0329 0.55469,-0.0781 1.02802,-0.19725 2.73691,-0.75499 4.92383,-1.63867 l 25.74414,-10.76172 c -1.85096,-3.73359 -2.89649,-7.93226 -2.89649,-12.37304 0,-3.90877 0.8167,-7.636548 2.28321,-11.027347 L 167.36719,83.787109 A 4.0046226,4.0046226 0 0 1 167.28711,83.75 c -1.61647,-0.710041 -2.56334,-1.042107 -3.44727,-1.349609 z" fill="#000000" fill-opacity="1" fill-rule="evenodd" stroke="none"></path><path transform="matrix(0.26458333,0,0,0.26458333,-20.472161,50.924912)" style="" d="m 236.46484,128.85156 c -4.58567,3.27263 -10.18909,5.20703 -16.23632,5.20703 -4.96022,0 -9.63235,-1.31258 -13.69141,-3.60156 l -18.32227,68.37695 18.29102,4.95313 11.30273,-42.25391 a 4.0046227,4.0046227 0 0 1 7.73633,0 l 11.13086,41.54492 18.37305,-4.90039 z" fill="#000000" fill-opacity="1" fill-rule="evenodd" stroke="none"></path><path style="" d="m 37.796635,73.681663 c -2.918307,0 -5.296837,2.378529 -5.296837,5.296835 0,2.942974 2.374249,5.2989 5.296837,5.2989 2.947228,0 5.2989,-2.351672 5.2989,-5.2989 0,-2.922587 -2.355927,-5.296835 -5.2989,-5.296835 z" fill="#000000" fill-opacity="1" fill-rule="evenodd" stroke="none"></path><path transform="matrix(0.26458333,0,0,0.26458333,-20.472161,50.924912)" style="" d="m 278.74609,81.902344 c -0.14347,0.01247 -0.31412,0.03138 -0.54687,0.07617 -1.02942,0.197556 -2.74044,0.752898 -4.93164,1.638672 l -27.28516,11.386718 c 1.4621,3.390992 2.27539,7.119404 2.27539,11.025394 0,3.84366 -0.77962,7.50871 -2.1875,10.84765 l 29.19141,12.125 a 4.0046226,4.0046226 0 0 1 0.0801,0.0293 c 1.61605,0.70986 2.5575,1.04988 3.4414,1.35742 0.0826,-0.81282 0.17266,-1.62004 0.22852,-3.05469 v -0.0449 -40.636716 a 4.0046226,4.0046226 0 0 1 0.008,-0.103516 c 0.0561,-2.223942 -0.0805,-3.819666 -0.25976,-4.583984 -0.0125,-0.05265 -0.003,-0.0204 -0.0137,-0.0625 z" fill="#000000" fill-opacity="1" fill-rule="evenodd" stroke="none"></path></g></svg>